Coordinates
version=1
nRows=7
nColumns=42
inDegrees=yes

Units are S.I. units (second, meters, Newtons, ...)
If the header above contains a line with 'inDegrees', this indicates whether rotational values are in degrees (yes) or radians (no).

endheader
time	pelvis_tilt	pelvis_list	pelvis_rotation	pelvis_tx	pelvis_ty	pelvis_tz	hip_flexion_r	hip_adduction_r	hip_rotation_r	knee_angle_r	knee_adduction_r	knee_angle_r_beta	ankle_angle_r	subtalar_angle_r	mtp_angle_r	hip_flexion_l	hip_adduction_l	hip_rotation_l	knee_angle_l	knee_adduction_l	knee_angle_l_beta	ankle_angle_l	subtalar_angle_l	mtp_angle_l	lumbar_extension	lumbar_bending	lumbar_rotation	arm_flex_r	arm_add_r	arm_rot_r	elbow_flex_r	pro_sup_r	wrist_flex_r	wrist_dev_r	arm_flex_l	arm_add_l	arm_rot_l	elbow_flex_l	pro_sup_l	wrist_flex_l	wrist_dev_l
      0.30000000	     17.74662632	      3.89292382	      5.57745574	     -1.55582620	      0.89468280	     -0.01832459	      4.80854476	     -0.98622945	    -14.15234917	     29.84530251	     -3.01466818	      0.52089880	     11.36281172	     -1.94020010	     -9.53847967	    -23.97839160	     -2.63974348	      0.85957982	     45.81815820	      4.30519740	      0.79967772	      1.07356916	     -2.84010993	     -9.53847967	    -35.74302489	     -0.99464154	     -4.50670894	      2.72214899	     -5.77346499	    -36.76262289	     24.37324541	     90.00000001	      0.00000000	      0.00000000	      7.60766293	     -8.47303116	    -33.07730221	     34.28278836	     90.00000001	      0.00000000	      0.00000000
      0.31000000	     17.79736073	      3.68618504	      5.44969027	     -1.54746619	      0.89557724	     -0.01710420	      4.13031730	     -0.55344121	    -14.61922783	     29.66467522	     -3.26450637	      0.51774625	     12.07452636	     -1.35976012	     -9.47446603	    -22.65588000	     -2.79933798	      1.48809060	     48.47580375	      4.56875040	      0.84606238	      0.57861202	     -4.42965229	     -9.47446603	    -35.80589006	     -0.82565840	     -4.47558152	      3.09679506	     -5.83395191	    -36.19918439	     24.76827121	     90.00000001	      0.00000000	      0.00000000	      7.37300843	     -8.37459391	    -33.13254149	     34.15183527	     90.00000001	      0.00000000	      0.00000000
      0.32000000	     17.82813596	      3.66896056	      5.34514502	     -1.53934033	      0.89649963	     -0.01625124	      3.53071212	     -0.39710811	    -15.23532441	     29.65284117	     -3.61119121	      0.51753971	     12.77144289	     -0.28221318	     -9.37010899	    -21.31171635	     -2.70778210	      2.55297248	     50.91981947	      5.13026785	      0.88871850	     -0.04515194	     -7.13089786	     -9.37010899	    -35.88112240	     -0.79054885	     -4.52879152	      3.37478496	     -5.95823606	    -35.00888826	     25.23875166	     90.00000001	      0.00000000	      0.00000000	      7.22548245	     -8.25351034	    -33.24581261	     33.96810365	     90.00000001	      0.00000000	      0.00000000
      0.33000000	     17.86110499	      3.55408321	      5.28047713	     -1.53136455	      0.89734635	     -0.01533794	      2.85681549	     -0.12031124	    -15.55056175	     29.48746211	     -3.74421999	      0.51465330	     13.51276545	      0.34507444	     -9.28845945	    -19.84883674	     -2.73059318	      3.10552625	     53.39383995	      5.32369515	      0.93189831	     -0.13765442	     -9.03563869	     -9.28845945	    -35.96602723	     -0.67005359	     -4.53526180	      3.72360484	     -6.06351058	    -34.07667049	     25.68588311	     90.00000001	      0.00000000	      0.00000000	      7.08833153	     -8.14719565	    -33.22713134	     33.82537309	     90.00000001	      0.00000000	      0.00000000
      0.34000000	     17.85740583	      3.46055282	      5.23797819	     -1.52365453	      0.89814188	     -0.01451885	      2.23223856	      0.11688458	    -15.72259027	     29.32905739	     -3.80750213	      0.51188862	     14.14171097	      0.76979173	     -9.21062962	    -18.28745901	     -2.71846802	      3.51398743	     55.74689996	      5.41475237	      0.97296695	      0.06031189	    -10.86107141	     -9.21062962	    -36.05206926	     -0.56029352	     -4.54409070	      4.09951855	     -6.17512211	    -33.04844550	     26.14462468	     90.00000001	      0.00000000	      0.00000000	      7.00957667	     -8.03278639	    -33.16363560	     33.67103765	     90.00000001	      0.00000000	      0.00000000
      0.35000000	     18.14074569	      3.58434683	      5.08127384	     -1.51598184	      0.89950012	     -0.01365858	      1.22544040	      0.09940229	    -15.65878918	     29.12321181	     -3.70568411	      0.50829593	     14.54147531	      0.90678076	     -9.18750320	    -17.14189079	     -2.38311524	      3.45624641	     57.65969888	      5.04409252	      1.00635159	      0.87305388	    -11.64069068	     -9.18750320	    -36.45543729	     -0.70480029	     -4.51412212	      4.60204114	     -6.22193591	    -32.71817640	     26.49490743	     90.00000001	      0.00000000	      0.00000000	      7.01329737	     -7.95652818	    -33.06856489	     33.60456888	     90.00000001	      0.00000000	      0.00000000
      0.36000000	     17.83840918	      3.32447909	      5.16179753	     -1.50876306	      0.89965764	     -0.01296337	      0.97702016	      0.50215129	    -15.59022134	     28.96749001	     -3.63396060	      0.50557808	     15.11457005	      0.91073246	     -9.08747097	    -15.03892424	     -2.58157822	      3.70063774	     59.94186016	      5.06055606	      1.04618282	      1.27822858	    -13.74868396	     -9.08747097	    -36.24356090	     -0.42356604	     -4.50439880	      4.89141739	     -6.42380937	    -30.83128155	     27.06377544	     90.00000001	      0.00000000	      0.00000000	      6.96413045	     -7.81415418	    -32.91047088	     33.38876632	     90.00000001	      0.00000000	      0.00000000
